<?xml version="1.0" encoding="UTF-8"?>
<svg xmlns="http://www.w3.org/2000/svg" xmlns:xlink="http://www.w3.org/1999/xlink" width="20pt" height="16pt" viewBox="0 0 20 16" version="1.1">
<g id="surface1">
<path style=" stroke:none;fill-rule:nonzero;fill:rgb(0%,0%,0%);fill-opacity:1;" d="M 12.398438 8 C 12.398438 9.324219 11.324219 10.398438 10 10.398438 C 8.675781 10.398438 7.601562 9.324219 7.601562 8 C 7.601562 6.675781 8.675781 5.601562 10 5.601562 C 11.324219 5.601562 12.398438 6.675781 12.398438 8 Z M 12.398438 8 "/>
<path style=" stroke:none;fill-rule:nonzero;fill:rgb(0%,0%,0%);fill-opacity:1;" d="M 10 0.804688 C 6.035156 0.804688 2.800781 4.039062 2.800781 8.003906 C 2.800781 11.96875 6.035156 15.203125 10 15.203125 C 13.964844 15.203125 17.199219 11.96875 17.199219 8.003906 C 17.199219 4.039062 13.964844 0.804688 10 0.804688 Z M 10 2.402344 C 13.101562 2.402344 15.601562 4.902344 15.601562 8.003906 C 15.601562 11.101562 13.101562 13.601562 10 13.601562 C 6.898438 13.601562 4.398438 11.101562 4.398438 8.003906 C 4.398438 4.902344 6.898438 2.402344 10 2.402344 Z M 10 2.402344 "/>
</g>
</svg>
